<?xml version="1.0" encoding="utf-8"?>
<!-- Generator: Adobe Illustrator 15.0.0, SVG Export Plug-In . SVG Version: 6.00 Build 0)  -->
<!DOCTYPE svg PUBLIC "-//W3C//DTD SVG 1.1//EN" "http://www.w3.org/Graphics/SVG/1.1/DTD/svg11.dtd">
<svg version="1.1" xmlns="http://www.w3.org/2000/svg" xmlns:xlink="http://www.w3.org/1999/xlink" x="0px" y="0px" width="350px"
	 height="76px" viewBox="0 0 350 76" enable-background="new 0 0 350 76" xml:space="preserve">
<g id="Fondo">
</g>
<g id="Gu_x2019_as">
</g>
<g id="Primer_plano">
	<g>
		<g>
			<rect x="-8.283" y="-7.608" fill-rule="evenodd" clip-rule="evenodd" fill="none" width="365.841" height="91.327"/>
		</g>
		<g>
			<path fill="#A5001D" d="M241.661,24.176c0.474,0,1.125,1.099,1.125,1.392c0,0.158-0.234,0.609-0.306,0.862
				c-0.048,0.182-0.015,0.474-0.015,0.632v2.071c0,0.158-0.514,1.874-0.514,2.031c0,0.158,0.193,0.949,0.193,1.107
				s-0.128,1.866-0.128,2.024s0.128,0.474,0.128,0.632s-0.066,0.232-0.089,0.288c0.024,0.118,0.024,2.203,0.024,2.337
				c0,0.316-0.193,0.791-0.193,0.949s0.193,0.822,0.193,0.98c0,0.158-0.257,0.984-0.321,1.425l0.128,4.583
				c0,0.158-0.074,0.117-0.13,0.17v0.739c0.001,0.34,0.268,0.85,0.564,1.222c0.391,0.067,1.044-0.278,1.428,0.167
				c-0.031,0.329-0.349,0.968-0.783,1.276c-0.394,0.285-0.821,0.345-1.295,0.487c-0.008,0-1.456,0.934-1.745,0.934
				c-0.539,0-0.641-0.693-0.76-1.03c-0.107-0.298,0.021-0.171,0.021-0.33s-0.159-0.381-0.312-0.531
				c-0.097-0.095-0.17-0.07-0.331-0.07c-0.651,0-2.395,1.392-2.957,1.392c-0.161,0-0.472-0.143-0.68-0.174
				c-0.506-0.087-1.066,0.054-1.548-0.104s-1.003-0.375-1.421-0.636c-0.289-0.182-0.545-0.543-0.778-0.805
				c-0.603-0.68-1.623-1.344-1.767-2.229c-0.128-0.783-0.619-2.092-0.619-2.25c0-0.158,0.321-1.075,0.321-1.233
				s-0.193-0.474-0.193-0.632s0.421-1.389,0.726-2.037c0.266-0.562,0.48-0.751,0.577-1.257c0.04-0.206,0.142-0.416,0.262-0.582
				c0.33-0.467,0.809-0.907,1.21-1.255c0.193-0.174,0.618-0.091,0.907-0.234c0.586-0.285,1.307-0.278,1.869-0.444
				c0.257-0.079,0.62-0.357,0.781-0.357s0.321,0.103,0.45,0.103c0.322,0,0.868-0.04,1.028-0.04c0.161,0,0.529-0.039,0.778,0.017
				c0.33,0.071,0.861,0.299,1.022,0.299c0.45,0,0.996-0.189,0.996-0.791c0-0.158-0.064-0.253-0.064-0.949
				c0-0.126-0.16-0.241-0.176-0.375c-0.04-0.316-0.081-0.763-0.081-0.921c0-0.158,0.257-1.265,0.257-1.423
				c0-0.608-0.45-1.13-0.45-1.265c0-0.158,0.185-0.247,0.193-0.444c0.048-0.886,0.064-0.947,0.064-1.105
				c0-0.158,0.015-0.818-0.21-1.087c-0.603-0.711-1.847-1.024-1.847-1.759c0-0.545,0.418-0.949,0.94-0.949h0.82
				c0.161,0,0.257-0.141,0.386-0.173c0.386-0.095,0.78-0.016,1.157-0.103C240.898,24.627,241.5,24.176,241.661,24.176z
				 M236.133,37.141c-1.559,0-1.317,0.06-3.229,1.095c-0.225,0.119-0.429,0.421-0.573,0.626c-0.169,0.229-0.171,0.533-0.299,0.762
				c-0.257,0.467-0.164,0.75-0.3,1.225c0.073,0.078,0.063,0.118,0,2.59c0.259,0.702,0.438,1.474,0.792,2.036
				c0.49,0.782,1.217,1.458,1.924,1.821c0.616,0.316,0.818,0.426,1.033,0.46c0.166,0.027,0.339,0.01,0.718,0.01
				c0.522,0,0.742-0.049,1.296-0.239c0.297-0.103,0.664-0.065,0.969-0.231c0.265-0.142,0.524-0.427,0.697-0.648
				c0.091-0.617,0.413-1.823,0.413-1.981c0-0.158-0.129-0.252-0.129-0.411s0.129-0.569,0.129-0.728s-0.193-1.739-0.193-1.897
				s0.128-1.233,0.128-1.391c0-0.704-0.018-0.517-0.347-1.418c-0.185-0.498-0.771-0.808-1.277-1.069
				c-0.346-0.182-0.688-0.484-1.034-0.595C236.609,37.079,236.293,37.141,236.133,37.141z M189.786,36.916
				c-1.077,0-2.267,0.359-3.287,1.593c-0.177,0.213-0.319,0.507-0.391,0.705c-0.113,0.3-0.063,0.646-0.168,0.883
				c-0.313,0.696-0.3,1.175-0.3,1.807v0.87c0,0.158,0.17,0.437,0.234,0.634c0.057,0.182-0.008,0.387,0.04,0.568
				c0.072,0.253,0.241,0.57,0.324,0.828c0.051,0.068,0.178,0.192,0.216,0.251c0.071,0.28,0.189,0.734,0.422,0.876
				c0.643,0.387,1.623,1.339,2.257,1.521c0.49,0.143,1.327,0.341,1.488,0.341s1.49-0.381,2.183-0.641
				c0.096-0.199,0.299-0.435,0.331-0.585c0.152-0.617,0.411-1.81,0.411-1.968s-0.097-0.243-0.113-0.322
				c-0.048-0.253,0.025-0.5,0.025-0.69c0-0.506,0-1.013-0.041-2.025c-0.016-0.443,0.072-0.887,0.041-1.267
				c-0.024-0.253-0.234-0.495-0.282-0.701c-0.104-0.411,0.032-1.011-0.242-1.279C191.706,37.107,190.927,36.916,189.786,36.916z
				 M195.475,24.204c0.161,0,0.332,0.077,0.437,0.148c0.82,0.577,0.721,1.006,0.721,1.496c0,0.158-0.089,0.742-0.153,1.05
				c-0.057,0.261-0.297,0.594-0.297,0.752s0.064,1.517,0.145,3.608c-0.017,0.067,0.048-0.003,0.048,0.155
				c0,0.158-0.45,1.146-0.45,1.304v13.518c0,1.826,1.671,0.364,1.671,1.748c0,0.474-0.252,1.072-0.791,1.302
				c-0.482,0.206-1.135,0.159-1.673,0.356c-0.506,0.182-1.265,0.682-1.425,0.682c-0.699,0-0.675-1.412-0.697-1.666
				c-0.037-0.057-0.097-0.114-0.151-0.17c-0.116,0.002-0.313-0.032-0.425,0.016c-0.948,0.403-2.039,1.125-2.963,1.314
				c-0.755,0.158-0.842,0.064-1.003,0.064s-0.895-0.025-1.264-0.152c-0.337-0.119-0.73-0.272-1.1-0.509
				c-0.201-0.135-0.396-0.484-0.645-0.673c-0.956-0.728-1.617-1.878-2.051-2.858c-0.097-0.229-0.075-0.515-0.107-0.768
				c-0.024-0.19-0.193-0.443-0.217-0.632c-0.04-0.316-0.081-0.7-0.081-1.08c0-0.948-0.064-1.043-0.064-1.201s0.017-0.53,0.082-0.767
				c0.056-0.206,0.209-0.438,0.282-0.635c0.209-0.546,0.234-1.42,0.904-1.968c0.02-0.056,0.087-0.125,0.125-0.182
				c0.022-0.183-0.08-0.543,0.113-0.709c0.932-0.806,1.961-1.033,3.014-1.483c0.193-0.079,0.427-0.293,0.708-0.404
				c0.361-0.142,0.783-0.128,1.169-0.128c0.193,0,0.546-0.079,0.707-0.079s0.29,0.126,0.45,0.126c0.161,0,0.193-0.126,0.354-0.126
				s0.61,0.126,0.771,0.126c0.161,0,0.862-0.126,1.301-0.208c0.248-0.348,0.563-0.93,0.563-1.088c0-0.632-0.506-1.263-0.385-1.9
				l0.064-3.475c-0.161-2.449-2.121-1.408-2.121-3.099c0-0.379,0.843-0.98,1.197-0.98h1.333c0.161,0,0.553-0.513,0.899-0.615
				C194.775,24.324,195.314,24.204,195.475,24.204z M118.821,36.473c0.402,0,0.739,1.518,1.189,1.518
				c0.362,0,1.953-0.963,2.082-0.995c0.185-0.047,0.454-0.08,0.64-0.102c0.058-0.037,0.115-0.104,0.276-0.104h1.655
				c0.763,0,1.316,0.367,2.272,0.841c0.402,0.198,0.514,0.644,0.611,0.952c0.209,0.632,0.499,1.332,0.628,1.967l0.064,3.422
				c-0.065,0.257-0.113,0.57-0.153,0.823c-0.016,0.126-0.233,0.351-0.233,0.509v1.375c0,0.158,0.232,0.436,0.296,0.696
				c0.121,0.49,0.016,1.097,0.168,1.579c0.161,0.514,0.242,0.396,0.242,0.8c0,0.846-0.779,1.139-1.382,1.139
				c-0.161,0-0.391-0.09-0.591-0.177c-0.402-0.174-1.369,0.05-1.369-0.804l0.064-5.379c0.064-0.319,0.321-0.914,0.321-1.072
				s-0.193-0.569-0.193-0.728s0.193-0.474,0.193-0.632s-0.322-0.814-0.322-0.972v-0.901c0-0.174-0.945-1.315-1.138-1.402
				c-0.241-0.103-0.501-0.164-0.758-0.164c-0.193,0-0.418-0.04-0.579-0.04c-0.9,0-1.783,0.177-2.683,0.707
				c-0.916,0.545-0.82,1.965-0.82,2.708c0,0.158,0.129,1.613,0.129,1.771s-0.322,1.265-0.322,1.423c0,0.158,0.111,1.998,0.464,2.962
				c0.096,0.277,1.786,1.283,1.786,1.687c0,0.577-1.117,1.012-1.414,1.012c-0.161,0-0.555-0.238-0.812-0.302
				c-0.434-0.11-0.97,0.048-1.476-0.039c-0.209-0.031-0.497-0.07-0.658-0.196c-0.225-0.182-0.526-0.72-0.526-0.878v-2.608
				c0-0.158,0.386-1.028,0.386-1.186V38.9c0-0.158-0.249-0.416-0.434-0.518c-0.337-0.189-1.302,0.107-1.302-0.644
				c0-0.514,1.61-0.949,1.771-0.933c0.257,0.023,0.518,0.096,0.759,0.025C118.056,36.711,118.66,36.473,118.821,36.473z
				 M154.786,37.485c-0.161,0-1.151,0.152-1.713,0.333c-0.394,0.126-0.834,0.333-1.091,0.626c-0.137,0.15-0.281,0.487-0.278,0.646
				v0.342c0.757,0.296,1.597,0.376,2.533,0.583l1.421-0.063c0.477-0.111,0.863-0.521,0.863-0.854c0-0.158-0.302-0.657-0.375-0.776
				C155.761,37.729,155.284,37.485,154.786,37.485z M154.914,36.41c0.611,0,0.748,0.107,1.393,0.484
				c1.986,0.259,2.786,1.769,2.786,3.058c0,0.158-0.01,0.826-0.155,1.182c-0.104,0.261-0.737,0.905-1.099,0.905
				c-0.161,0-0.76-0.438-1.17-0.619c-0.297-0.134-0.695-0.132-1.081-0.14c-1.382-0.047-1.03-0.189-1.544-0.237
				c-0.257-0.023-0.577,0.079-1.284,0.048c-0.466-0.024-1.155-0.443-1.316-0.443c-0.563,0-0.771,0.261-0.771,0.728
				c0,0.158-0.193,1.106-0.193,1.265c0,0.601,0.032,0.442,0.064,2.086c0,0.198,0.205,0.427,0.357,0.68
				c0.225,0.372,0.431,0.747,0.768,1.134c0.417,0.482,0.78,1.311,1.359,1.484c0.482,0.143,1.75,0.718,2.401,0.718
				c0.402,0,1.015-0.601,1.167-0.735c0.249-0.229,0.996-0.563,1.125-0.951c0.04-0.119,0.072-0.353,0.225-0.503
				c0.097-0.095,0.344-0.151,0.505-0.151c0.434,0,0.579,0.348,0.579,0.632c0,0.158-0.178,0.807-0.283,1.178
				c-0.016,0.063-0.105,0.221-0.202,0.308c-0.361,0.324-0.932,0.954-1.149,1.405c-0.096,0.213-0.669,0.42-0.83,0.475
				c-0.201,0.071-0.39,0.102-0.575,0.188c-0.193,0.095-0.457,0.239-0.718,0.303l-2.902-0.063c-1.828-0.562-3.819-2.557-4.012-4.202
				c-0.153-1.32,0.04-1.646,0-2.469c-0.016-0.458-0.386-1.14-0.386-1.298s0.203-0.453,0.299-0.737
				c0.161-0.474,0.272-1.097,0.425-1.643c0.096-0.34,0.169-0.649,0.257-0.949c0.104-0.34,0.319-0.754,0.584-1.086
				c0.241-0.3,0.723-0.347,1.02-0.537c0.796-0.506,1.544-1.19,2.452-1.419C153.628,36.332,154.753,36.41,154.914,36.41z
				 M133.959,35.904c0.659,0,0.121,1.075,0.964,1.075c0.161,0,0.804-0.379,0.964-0.379s0.354,0.189,0.514,0.189
				s0.804-0.253,0.964-0.253s0.588,0.207,0.877,0.294c0.555,0.166,1.149,0.149,1.738,0.167c0.138,0.117,0.213,0.267,0.213,0.425
				c0,0.672-0.707,0.53-0.707,1.581c0,0.158,0.297,0.699,0.361,1.102c0.121,0.688,0.416,1.59,0.769,2.396
				c0.104,0.237,0.162,0.589,0.234,0.826c0.121,0.396,0.602,0.803,0.794,1.262c0.064,0.15,0.035,1.056,0.573,1.056
				c0.161,0,0.24-0.122,0.336-0.177c0.107-0.416,0.464-0.74,0.769-1.262c0.322-0.561,0.335-1.347,0.552-1.955
				c0.096-0.285,0.377-0.544,0.474-0.884c0.217-0.735,0.729-2.11,0.729-2.268c0-1.107-1.35-0.933-1.35-1.613
				c0-0.379,0.506-0.443,0.675-0.443c0.161,0,1.575,0.063,1.735,0.063c0.161,0,0.354,0.126,0.515,0.126
				c0.161,0,0.321-0.126,0.45-0.126c1.157,0,1.189,0.063,1.35,0.063s0.45-0.126,0.61-0.126c0.161,0,0.368,0.13,0.51,0.205v0.223
				c-0.395,0.263-0.842,0.542-1.3,0.748c-0.241,0.103-0.599,0.096-0.84,0.167c-0.563,0.166-0.969,0.792-1.187,1.171
				c-0.594,1.036-0.955,2.195-1.477,3.349c-0.048,0.111-0.014,0.303-0.014,0.462c0,0.158-0.436,0.792-0.564,1.179
				c-0.056,0.182-0.041,0.46-0.105,0.634c-0.185,0.458-0.605,0.93-0.926,1.459c-0.064,0.103-0.012,0.332-0.012,0.49
				s-0.563,1.327-0.692,1.904c-0.056,0.245-0.048,0.514-0.104,0.759c-0.064,0.261-0.233,0.568-0.308,0.902
				c-0.084,0.007-0.053,0.071-0.213,0.071c-0.434,0-0.745-1.246-0.761-1.286c-0.217-0.569-0.41-1.219-0.579-1.772
				c-0.337-1.083-0.658-2.187-1.092-3.223c-0.177-0.427-0.4-0.858-0.665-1.325c-0.129-0.229-0.083-0.526-0.171-0.764
				c-0.104-0.276-0.353-0.544-0.474-0.82c-0.128-0.292-0.113-0.649-0.233-0.95c-0.257-0.64-0.49-1.336-0.771-2.024
				c-0.081-0.213-1.384-1.055-1.811-1.055c-0.603,0-1.157,0.943-1.189,1.424l-0.128,9.106c-0.024,0.791,0.964,1.019,0.964,1.517
				c0,0.514-1.542,0.664-1.639,0.664c-0.161,0-0.514-0.126-0.675-0.126s-0.225,0.063-0.864,0.063
				c-0.253,0.063-0.511,0.189-0.773,0.253c-0.584-0.063-0.645,0-0.721-0.002c-0.075-0.07-0.128-0.063-0.199-0.09
				c-0.199-0.235-0.463-0.666-0.463-0.824c0-0.617,2.001-0.906,2.186-2.153l0.128-2.48c0-0.158-0.032-0.016-0.124-0.025v-1.05
				c-0.005-0.158,0.068-0.006,0.125-0.059V40.6c-0.001-0.158-0.033-0.016-0.127-0.036c0.071-0.098,0.126-0.17,0.126-0.328
				s-0.128-0.126-0.128-0.285s0.128,0.032,0.128-0.126s-0.264-0.796-0.408-1.223c-0.112-0.332-0.685-0.896-0.685-1.054
				c0-0.245,0.119-0.52,0.408-0.615c0.482-0.158,1.116-0.292,1.671-0.482C133.554,36.222,133.46,35.904,133.959,35.904z
				 M182.148,35.842c0.288,0.177,0.173,0.661,0.229,0.843c0.073,0.253,0.307,0.61,0.307,0.768c0,0.158-0.42,0.952-0.629,1.466
				c-0.04,0.11,0.051,0.241,0.051,0.399l-0.065,8.691c0.063,0.185,0.099,0.46,0.268,0.682c0.201,0.269,0.568,0.588,0.568,0.746
				c0,0.569-0.988,0.759-1.261,0.759h-1.848c-0.161,0-0.619,0.253-0.779,0.253c-0.506,0-1.446,0.055-1.446-0.98
				c0-0.545,0.422-0.702,1.113-0.962c0.057-0.016,0.219-0.014,0.32,0.048c0.046-0.232,0.493-0.662,0.606-0.812
				c0.088-0.119,0.187-0.297,0.187-0.487c0-0.253,0.024-0.593,0.024-0.751v-6.467c0-0.158-0.15-1.095-0.343-1.561
				c-0.145-0.356-0.75-0.747-0.75-1.056c0-0.569,1.892-1.049,2.013-1.096C181.08,36.175,181.764,35.785,182.148,35.842z
				 M174.005,35.777c0.603,0,2.689,0.656,2.689,0.656c0.145,0.126,0.911,1.059,0.911,1.367c0,0.158-0.541,0.77-0.693,1.181
				c-0.104,0.292-0.041,0.649-0.169,0.95c-0.145,0.332-0.994,0.905-1.259,0.905c-0.313,0-1.07-0.818-1.134-0.897
				c-0.088-0.111-0.152-0.336-0.152-0.494c0-0.245,0.153-0.379,0.321-0.379c0.161,0,0.322,0.126,0.482,0.126
				c0.088,0,0.546-0.15,0.546-0.411c0-0.925-0.908-0.791-1.253-0.791c-0.852,0-1.382,0.032-1.382,1.107
				c0,0.664-0.053,0.979,0.397,1.691c0.306,0.482,0.712,0.976,1.138,1.45c0.088,0.095,0.341,0.154,0.486,0.265
				c0.65,0.506,1.479,1.324,1.809,2.02c0.136,0.292,0.091,0.867,0.091,1.025s0.45,1.36,0.45,1.518c0,0.158-0.25,0.435-0.306,0.641
				c-0.064,0.237-0.002,0.534-0.106,0.763c-0.161,0.356-0.504,0.578-0.801,0.894c-0.145,0.158-0.374,0.664-0.735,0.807
				c-0.193,0.079-0.446,0.191-0.711,0.254c-0.755,0.182-2.193,0.404-2.354,0.404c-0.779,0-0.905-0.145-1.91-0.596
				c-0.281-0.126-1.24-1.286-1.24-1.776c0-0.158,0.155-1.175,0.405-1.72c0.064-0.15,0.302-0.208,0.463-0.208
				s0.218,0.075,0.326,0.207c0.396,1.461,0.944,2.449,2.213,2.449c0.819,0,2.378-0.64,2.378-1.676c0-0.514-0.125-0.762-0.343-1.252
				c-0.064-0.143-0.191-0.415-0.376-0.557c-1.093-0.838-1.965-1.696-2.921-2.811c-0.233-0.269-0.454-0.59-0.646-0.93
				c-0.129-0.221-0.197-0.581-0.237-0.897c-0.024-0.19-0.29-0.437-0.297-0.635c-0.048-0.759-0.064-0.855-0.064-1.014
				c0-0.158,0.129-0.89,0.202-1.35C171.658,36.453,172.647,35.777,174.005,35.777z M162.724,35.777c1.953,0,1.013,2.023,1.8,2.023
				c0.161,0,0.284-0.171,0.437-0.234c0.747-0.34,1.556-1.727,2.335-1.726h0.836c0.843,0.494,0.987,0.806,0.987,1.493v1.186
				c0,0.269-0.779,0.735-0.868,0.735c-0.161,0-1.543-0.316-1.704-0.316c-1.39,0-2.436,2.467-2.275,3.121
				c0.023,0.062-0.039,0.199-0.039,0.263c-0.064,1.203-0.128,2.118-0.128,2.276s0.059,0.173,0.103,0.243
				c0.026,0.324-0.039,0.864-0.039,1.022c0,1.162,0.45,0.854,0.45,1.486c0,0.158-0.128,0.38-0.128,0.538
				c0,0.158,0.064,0.222,0.064,0.379c0,0.743,1.211,1.329,1.533,1.621c0.096,0.087,0.139,0.245,0.139,0.403
				c0,0.53-1.037,0.601-1.133,0.601h-3.648c-0.394,0-0.747-0.498-0.747-0.822c0-0.482,1.062-0.909,1.134-1.178
				c0.048-0.182,0.025-0.381,0.088-0.566l-0.064-6.314c-0.063-0.185-0.193-0.434-0.241-0.695c-0.072-0.372-0.017-1.049-0.017-1.208
				s-0.373-1.035-0.662-1.501c-0.321-0.514-0.943-0.814-1.12-1.399c-0.017-0.064-0.018-0.071-0.018-0.229
				c0-0.206,0.025-0.545,0.547-0.53C162.139,36.497,161.575,35.777,162.724,35.777z M204.057,43.493
				c-0.161,0-1.261,0.563-1.679,1.022c-0.233,0.253-0.237,0.67-0.366,0.892c-0.185,0.34-0.559,0.734-0.559,0.893v0.775
				c0,0.324,1.278,1.036,1.446,1.036c0.266,0,0.562-0.349,0.638-0.443c0.041,0.109,0.038,0.19,0.198,0.19
				c0.345,0,1.317-0.467,1.317-1.107c0-0.158-0.016-0.255-0.064-0.888C204.933,45.119,205.326,43.493,204.057,43.493z
				 M203.189,33.816c0.161,0,0.579,0.19,0.739,0.19s0.803-0.19,0.964-0.19c0.426,0,1.088,0.41,1.289,0.71
				c0.177,0.269,0.217,0.633,0.389,0.907c0.09,0.432,0.218,0.873,0.348,1.32l-0.064,9.999c-0.088,0.682,1.051,0.979,1.465,1.063
				c0.314,0.5,0.271,0.769,0.271,1.275c0,0.206,0.072,0.662-0.161,0.907c-0.683,0.719-0.795,0.832-1.478,0.832
				c-1.655,0-1.535-1.708-2.089-1.708c-0.386,0-0.783,0.546-1,0.728c-0.739,0.625-1.451,0.601-2.19,0.601h-1.27
				c-0.739,0-1.261-1.739-1.261-1.984v-2.103c0-0.158,0.303-1.212,0.665-1.718c0.273-0.379,1.038-0.539,1.472-0.792
				c0.683-0.403,1.29-0.748,1.796-1.159c0.217-0.182,0.606-0.077,0.911-0.172c0.619-0.19,1.07-0.563,1.07-1.147
				c0-0.158-0.128-1.392-0.128-1.55s0.128-1.043,0.128-1.202c0-1.281-0.328-1.58-0.794-3.122c-0.04-0.158-0.998-0.863-1.263-0.863
				c-0.161,0-0.526,0.182-0.631,0.364c-0.161,0.277-0.201,0.735-0.362,1.012c-0.104,0.174-0.415,0.196-0.56,0.338
				c-0.458,0.443-0.344,2.144-1.244,2.144c-0.595,0-0.996-1.241-0.996-1.455c0-0.332,0.16-0.471,0.497-0.874
				c0.129-0.158,0.077-0.448,0.238-0.574C200.814,34.907,202.16,33.816,203.189,33.816z M102.461,30.654
				c-0.498,0-0.574,0.41-1.007,1.09c-0.177,0.269-0.136,0.647-0.297,0.885c-0.217,0.324-0.533,0.63-0.669,0.954
				c-0.177,0.419-0.469,1.174-0.469,1.333v1.407c0,0.158,0.273,0.564,0.298,0.817c0.032,0.316-0.086,0.657,0.042,0.958
				c0.064,0.15,0.331,0.249,0.412,0.384c0.104,0.174,0.073,0.475,0.169,0.633c0.354,0.553,0.761,1.018,1.146,1.374
				c0.265,0.245,0.673,0.159,0.986,0.159c0.346,0,1.061,0.158,1.061-0.601c0-0.158-0.322-1.107-0.322-1.265s0.163-0.575,0.332-0.804
				c0.145-0.206,0.409-0.283,0.538-0.441c0.128-0.158,0.04-0.474,0.168-0.632c0.193-0.229,0.552-0.456,0.793-0.693
				c0.313-0.316,0.4-0.91,0.542-1.206c0.061-0.059,0.038-0.113,0.199-0.113c0.153,0,0.386,0.167,0.386,0.403v1.407
				c0,1.06,1.221,1.154,1.221,2.364c0,0.372,0.047,0.407-0.402,0.96c-0.354,0.435-0.782,0.856-1.192,1.173
				c-0.161,0.126-0.403,0.199-0.581,0.357c-0.843,0.774-1.662,1.708-2.489,1.826c-0.265,0.032-0.55,0.237-0.71,0.237h-2.813
				c-0.161,0-0.747-0.456-0.996-0.748c-0.394-0.458-0.49-1.051-0.812-1.438c-0.097-0.111-0.676-0.501-0.678-0.636v-2.76
				c0.711-0.487,0.709-1.026,0.709-1.533c0-0.158,0-0.507-0.074-1.857c-0.086-0.009-0.151-0.072-0.22-0.071
				c-0.407,0.127-0.567,0.731-0.751,0.96c-0.442,0.545-1.718,1.383-1.871,2.482c-0.024,0.174-0.362,0.708-0.362,0.984
				c0,0.672,0.836,1.344,0.836,1.858v1.091c0,0.19,1.142,2.102,1.375,2.331c1.165,1.146,2.459,1.779,3.664,2.009
				c0.161,0.031,0.251,0.206,0.324,0.214c0.386,0.047,1.097,0.15,1.257,0.15c0.161,0,0.419-0.024,1.319-0.063
				c0.321-0.016,0.64-0.246,0.905-0.301c0.313-0.063,0.66-0.024,0.965-0.103c0.402-0.103,0.817-0.35,1.227-0.531
				c0.458-0.198,1.052-0.261,1.478-0.442c0.177-0.071,0.452-0.017,0.626-0.107c0.093-0.107,0.229-0.286,0.229-0.443l0.064-11.389
				c-0.065-0.195-0.088-1.165-0.546-1.165c-0.506,0-0.643,0.822-2.121,0.822c-0.161,0-1.093-0.316-1.254-0.316
				c-0.361,0-1.262,0.115-1.527,0.273c-0.924,0.561-0.602,0.865-1.204,0.865c-0.563,0-0.675-0.34-0.675-0.854
				c0-0.182,0.739-1.056,0.819-1.095c0.273-0.15,0.595-0.289,0.595-0.644C103.104,30.916,102.767,30.654,102.461,30.654z
				 M105.644,28.757c0.064,0,0.124,0.063,0.643,0c1.813,0.301,1.671,1.075,3.085,1.075c2.178,0,0.731-1.012,2.475-1.012
				c0.651,0,1.671,0.095,1.671,0.98c0,0.727-1.028,0.885-1.028,1.336v5.739c0,0.158,0.257,2.411,0.257,2.569
				s-0.104,1.235-0.193,3.132c-0.032,0.759-0.072,1.009,0,2.147c0.016,0.285-0.104,1.172,0.643,1.172
				c0.354,0,0.169-0.249,0.595-0.486c0.225-0.126,0.755-0.21,0.916-0.21c0.161,0,0.271,0.003,0.408,0.073
				c0,0,0.074-0.009,0.074,0.149c0,0.19-0.659,1.103-0.734,1.721c-0.367,0.388-0.7,0.913-1.142,1.253
				c-0.868,0.664-1.861,0.938-2.786,1.832c-0.233,0.222-0.93,0.349-1.091,0.349c-0.168,0-0.803-0.182-0.803-0.466v-0.775
				c0-0.158,0.242-0.433,0.298-0.694c0.064-0.308,0.088-0.879,0.088-1.037c0-0.458-0.169-0.948-0.579-0.948
				c-0.442,0-1.085,0.931-1.511,1.381c-0.386,0.403-0.838,0.872-1.264,1.243c-0.152,0.134-0.491,0.111-0.708,0.293
				c-0.707,0.577-1.755,0.932-2.334,0.94c-2.724,0.056-1.648,0.127-2.475,0.127c-0.161,0-0.237,0.023-1.064-0.063
				c-0.972-0.103-1.876-0.352-2.905-0.937c-0.338-0.19-0.794-0.173-1.156-0.355c-0.402-0.206-0.752-0.7-1.002-1.127
				c-0.168-0.292-0.514-0.498-0.667-0.758c-0.104-0.174-0.072-0.474-0.168-0.632c-0.571-0.949-0.559-0.783-0.559-1.376
				c0-0.158-0.361-0.625-0.433-0.974c-0.056-0.245,0-0.572-0.041-0.888c-0.024-0.189-0.233-0.542-0.233-0.699
				c0-0.158,0.321-0.909,0.321-1.067v-1.913c0-0.158,0.246-0.68,0.406-0.957c0.104-0.182,0.425-0.283,0.538-0.504
				c0.081-0.166,0.051-0.407,0.171-0.573c0.201-0.277,0.548-0.413,0.732-0.634c0.128-0.158,0.099-0.449,0.164-0.623
				c0.113-0.301,0.526-0.854,0.735-1.146c0.168-0.237,0.3-0.557,0.492-0.762c0.515-0.553,1.711-1.441,1.711-2.097
				c0-0.419-0.161-0.442-0.418-0.442c-0.482,0-1.012,0.695-2.025,0.695c-0.161,0-1.478-0.695-1.639-0.695
				c-0.257,0-0.803,0.411-0.803,0.672v0.933c0,0.403-0.563,0.945-0.627,1.466c-0.048,0.372,0.078,0.863-0.107,1.274
				c-0.081,0.189-0.456,0.335-0.616,0.335s-0.402-0.43-0.595-0.643c-0.249-0.285-0.652-0.483-0.925-0.823
				c-0.225-0.277-0.182-0.931-0.087-1.226c0-0.059-0.064-0.124,0-1.008c0-0.062-0.128-0.157-0.128-0.315
				c0-0.158,0.069-0.144,0.106-0.202c0.022-0.121-0.042-0.336-0.042-0.494c0-0.3,0.504-0.952,0.915-1.212
				c0.241-0.15,0.597-0.17,0.911-0.234c0.185-0.04,0.545-0.439,0.827-0.59c0.297-0.158,0.669-0.23,0.967-0.357
				c0.281-0.119,0.631-0.611,0.792-0.611h8.404c1.085,0,0.127,0.759,1.423,1.012c0.509-0.063,0.578,0,0.641,0
				C105.063,30.022,104.608,28.726,105.644,28.757z M132.577,26.67c0.161,0,0.579,0.063,0.739,0.063
				c0.474,0,0.793,0.494,1.028,1.039c-0.064,0.64-0.073,0.678,0,0.758c-0.091,0.208-0.787,1.429-1.253,1.429
				c-0.281,0-1.042-0.533-1.17-0.842c-0.048-0.111,0.015-0.327-0.041-0.509c-0.064-0.197-0.299-0.515-0.299-0.673
				s0.2-0.368,0.301-0.49c0.022-0.059,0.021-0.182,0.04-0.251C132.118,26.958,132.271,26.67,132.577,26.67z M180.594,26.544
				c0.161,0,0.735,0.089,1.041,0.208c0.626,0.245,0.792,1.152,0.792,1.5c0,0.719-0.828,1.581-1.414,1.581
				c-0.546,0-0.353-0.202-0.939-0.516c-0.215-0.451-0.539-1.318-0.539-1.476C179.534,27.674,180.08,26.544,180.594,26.544z
				 M215.434,37.801c-1.607,0-3.431,0.875-3.656,3.127c-0.032,0.324-0.297,0.723-0.297,0.881v1.913c0,0.158,0.348,1.008,0.557,1.521
				c0.041,0.111,0,0.324,0.04,0.442c0.193,0.498,0.086,0.957,0.705,1.32c0.104,0.063,0.289,0.056,0.377,0.159
				c0.748,0.877,1.693,1.26,2.529,1.339c0.273,0.023,0.613,0.174,0.774,0.174c0.161,0,1.156-0.162,1.622-0.407
				c0.603-0.308,0.667-0.904,0.803-1.323c0.081-0.253,0.234-0.506,0.243-0.704c0.056-1.328,0.064-3.732,0.064-3.891
				c0-0.664-0.066-1.125-0.372-2.002c-0.12-0.355,0.05-0.833-0.239-1.149C217.563,38.088,216.479,37.801,215.434,37.801z
				 M221.091,25.216c0.964,0,1.318,0.869,1.318,1.581c0,0.158-0.514,2.277-0.514,2.435c0,0.158,0.128,1.139,0.128,1.296
				c0,0.158-0.128,1.012-0.128,1.17c0,0.158,0.128,0.443,0.128,0.601s-0.322,1.237-0.386,1.804l0.063,12.148
				c-0.067,0.133-0.127,0.182-0.127,0.34c0,0.538,0.144,1.284,0.433,1.435c0.177,0.095,0.438,0.02,0.63,0.036
				c0.297,0.023,0.742,0.484,0.903,0.826c0.024,0.064,0.027,0.075,0.027,0.233c0,0.49-0.948,1.202-1.39,1.202h-0.884
				c-0.024,0-1.864,0.759-1.937,0.759c-1.157,0-0.097-1.771-1.157-1.771c-0.161,0-1.957,1.017-3.009,1.428
				c-0.233,0.087-0.655,0.026-0.815,0.026c-2.764,0-3.99-1.884-4.995-4.066c-0.129-0.292-0.131-0.706-0.171-1.085
				c-0.016-0.19-0.191-0.324-0.28-0.562c-0.112-0.292-0.082-0.801-0.082-0.959s-0.032-0.581,0.064-1.332
				c0.024-0.19,0.17-0.377,0.234-0.575c0.12-0.372,0.048-0.775,0.168-1.139c0.129-0.387,0.275-0.85,0.452-1.206
				c0.137-0.269,0.624-0.523,0.624-0.682s-0.128-0.126-0.128-0.285c0-0.395,1.625-1.335,1.825-1.375
				c1.021-0.213,2.032-0.918,2.964-0.902c1.35,0.023,2.024,0.126,2.185,0.126c0.161,0,0.324-0.126,0.517-0.111
				c1.125,0.095,1.379-0.87,1.379-1.407c0-0.158-0.321-1.067-0.321-1.225v-1.787c0-0.158,0.161-1.513,0.041-2.264
				c-0.064-0.403-0.194-0.871-0.444-1.187c-0.667-0.854-1.654-0.984-1.654-1.822c0-0.427,0.632-0.877,0.993-0.909
				c0.45-0.047,0.97-0.047,1.412-0.126c0.265-0.047,0.556-0.385,0.893-0.528c0.113-0.047,0.329-0.01,0.521-0.042
				C220.7,25.295,220.93,25.216,221.091,25.216z M291.028,37.583c0.161,0,0.642,0.151,0.972,0.23
				c0.185,0.04,0.458-0.063,0.627-0.023c0.683,0.166,0.683,0.45,0.683,0.869c0,0.158-0.096,0.603-0.112,0.919
				c-0.041,0.569-0.016,3.097-0.016,3.255c0,0.158-0.162,0.726-0.242,1.113c-0.04,0.182,0.025,0.437,0.025,0.673
				c0,0.206-0.104,0.49-0.104,0.648s0.249,1.062,0.337,1.576c0.137,0.814,1.426,1.729,2.198,1.618c0.515-0.063,0.583,0,0.642,0
				c0.188-0.062,0.478-0.003,0.694-0.146c0.675-0.443,1.586-0.569,1.892-1.415c0.153-0.419,0.279-1.16,0.279-1.318
				c0-0.158-0.192-0.944-0.257-1.39c0.064-0.763,0-0.823,0-0.89c0.065-0.319,0.257-0.787,0.257-0.945s-0.127-0.148-0.175-0.307
				c-0.081-0.237-0.106-0.576-0.13-0.829c-0.032-0.316,0.081-0.701,0.025-1.009c-0.129-0.632-1.969-0.97-1.969-1.776
				c0-0.467,1.012-0.791,1.221-0.791c0.161,0,0.687,0.129,1.003,0.254l1.47,0.063c1.137-0.229,1.256,1.32,1.256,1.897
				c0,0.158-0.45,3.162-0.45,3.32s0.193,1.518,0.193,1.676s-0.193,1.202-0.193,1.36s0.064,1.708,0.064,1.866
				c0,0.933,1.542,0.403,1.542,0.948c0,0.158-0.192,0.415-0.401,0.541c-0.297,0.182-0.646,0.384-0.975,0.447
				c-0.313,0.056-0.715-0.016-1.028,0.04c-0.33,0.063-0.81,0.364-0.97,0.364c-0.748,0-0.731-0.841-1.106-1.268
				c-0.814,0.019-1.776,0.888-2.62,0.951c-1.092,0.087-1.612-0.063-2.127-0.111c-0.843-0.087-2.02-0.547-2.51-1.037
				c-0.081-0.079-0.925-2.552-0.925-2.9c0-0.433-0.008-0.341-0.01-0.341l0.074-2.284c0.008-0.458,0.45-1.295,0.45-1.454
				s-0.031-0.444-0.088-0.689c-0.072-0.324-0.273-0.625-0.345-0.949c-0.056-0.245,0.033-0.52-0.04-0.756
				c-0.121-0.396-0.363-0.958-0.363-1.116C289.775,37.781,290.603,37.583,291.028,37.583z M322.14,36.951
				c0.161,0,0.399,0.143,0.583,0.167c0.635,0.095,1.346,0.276,2,0.294c0.138,0.117,0.213,0.298,0.213,0.457
				c0,0.498-0.579,0.759-0.579,1.486c0,0.158,0.128,0.442,0.168,0.608c0.241,0.909,0.246,2.079,0.896,3.138
				c0.105,0.174,0.09,0.462,0.171,0.636c0.241,0.529,0.649,1.072,0.987,1.641c0.177,0.292-0.02,0.49,0.35,0.49
				c0.748,0,1.511-2.377,1.624-2.947c0.024-0.126,0.195-0.315,0.283-0.512c0.128-0.293,0.921-2.699,0.921-2.992
				c0-0.727-1.221-0.727-1.221-1.455c0-0.277,0.249-0.443,0.426-0.443h1.848c0.161,0,1.099,0.016,1.678-0.023
				c0.321-0.016,0.87-0.166,1.03-0.166s0.46,0.065,0.664,0.134c0,0,0.075-0.008,0.075,0.15s-0.432,0.587-0.785,0.824
				c-0.474,0.324-1.142,0.317-1.608,0.609c-0.522,0.332-0.919,0.886-1.104,1.36c-0.177,0.466-0.329,0.964-0.514,1.454
				c-0.192,0.514-0.554,0.995-0.73,1.517c-0.081,0.237-0.017,0.522-0.105,0.76c-0.104,0.277-0.377,0.569-0.474,0.822
				c-0.088,0.245-0.088,0.521-0.168,0.758c-0.177,0.522-0.7,1.045-0.925,1.583c-0.096,0.229-0.015,0.582-0.103,0.882
				c-0.104,0.34-0.37,0.679-0.474,1.074c-0.128,0.498-0.101,1.227-0.538,1.854h-0.367c-0.13-0.133-0.274-0.322-0.315-0.528
				c-0.136-0.617-0.635-1.274-0.707-1.709c-0.137-0.806-0.513-1.64-0.771-2.462c-0.032-0.119-0.017-0.319-0.04-0.44
				c-0.037-0.058-0.1-0.119-0.152-0.19c-0.018-0.198-0.032-0.457-0.104-0.631c-0.354-0.791-0.853-1.869-1.094-2.596
				c-0.064-0.197-0.281-0.435-0.346-0.632c-0.313-0.933-0.585-1.989-1.003-2.906c-0.096-0.213-1.907-1.033-1.907-1.373
				c0-0.411,0.667-0.632,0.707-0.632c0.161,0,0.579,0.126,0.739,0.126S321.979,36.951,322.14,36.951z M309.895,37.71
				c-0.161,0-0.343,0.135-0.552,0.167c-0.522,0.087-2.47,0.15-2.47,1.415c0,0.158,0.005,0.238,0.078,0.35
				c0.719,0.155,1.424,0.344,2.136,0.535c0.968,0,1.032,0.063,1.193,0.063c0.394,0,1.479-0.237,1.479-0.949
				c0-0.443-0.946-1.374-1.307-1.5C310.275,37.728,310.055,37.71,309.895,37.71z M309.613,36.635h0.82
				c0.434,0,2.688,1.003,2.728,1.035c0.201,0.158,0.452,0.428,0.69,0.64c0.156,0.498,0.479,1.487,0.479,1.646
				c0,1.028-0.148,1.597-0.921,2.243c-0.903,0.01-1.601-0.717-2.388-0.678c-0.386,0.016-0.872,0.077-1.233-0.042
				c-0.755-0.253-1.28-0.22-1.987-0.315c-0.386-0.055-1.056-0.292-1.217-0.292c-0.835,0-0.739,0.861-0.739,1.486
				c0.024,2.024-0.064,2.283-0.113,2.536c-0.016,0.231,0.397,0.818,0.676,0.917c0.07,0.067,0.015,0.122,0.015,0.28
				s0.38,0.489,0.549,0.742c0.081,0.126,0.031,0.275,0.104,0.378c0.257,0.355,0.654,0.803,1.063,0.978
				c0.748,0.324,2.205,0.716,2.366,0.716c0.859,0,1.831-1.11,2.562-2.012c0.128-0.166,0.459-0.328,0.62-0.328
				c0.33,0,0.579,0.364,0.579,0.569c0,0.158-0.182,0.973-0.415,1.352c-0.354,0.577-0.935,0.993-1.417,1.546
				c-0.145,0.166-0.61,0.525-0.904,0.533c-0.069-0.017-0.117-0.017-0.178-0.002c-0.39,0.212-0.984,0.429-1.498,0.429h-2.362
				c-0.161,0-0.209-0.144-0.338-0.175c-0.972-0.269-2.292-1.483-2.959-2.496c-0.297-0.45-0.519-1.014-0.647-1.527
				c-0.056-0.245,0.047-0.514,0.047-0.766l-0.064-1.895c-0.128-0.693-0.321-0.557-0.321-1.046c0-0.158,0.451-1.582,0.66-2.317
				c0.169-0.593,0.367-1.29,0.712-1.78c0.49-0.68,1.599-1.123,2.242-1.55c0.402-0.261,0.765-0.486,1.166-0.597
				C308.48,36.707,309.453,36.635,309.613,36.635z M252.492,36.825c-0.161,0-0.458,0.19-0.619,0.19h-0.884
				c-0.321,0-1.313,0.773-1.474,1.027c-0.08,0.134-0.302,0.293-0.299,0.451v0.214c0.144,0.075,0.289,0.165,0.41,0.18
				c0.892,0.158,2.513,0.467,2.673,0.467c0.217,0,1.993-0.079,1.993-0.886C254.292,37.67,253.352,36.825,252.492,36.825z
				 M252.139,35.75c1.679,0,2.992,0.615,4.173,1.46c0.168,0.119,0.108,0.475,0.181,0.712c0.297,0.949,0.307,0.776,0.307,1.369
				c0,0.632-0.112,1.645-1.189,1.645c-0.16,0-1.968-0.316-2.129-0.316h-0.884c-0.161,0-0.884-0.379-1.044-0.379h-1.656
				c-0.161,0-0.458-0.19-0.619-0.19c-1.068,0-1.028,0.72-1.028,1.265c0,0.158,0.128,1.233,0.128,1.391s-0.128,0.791-0.128,0.949
				c0,0.458,0.662,1.438,0.871,1.786c0.137,0.222,0.207,0.621,0.423,0.882c0.225,0.277,1.022,0.955,1.448,1.105
				c0.691,0.245,2.046,0.591,2.207,0.591c0.876,0,2.144-1.679,2.401-2.011c0.128-0.166,0.395-0.266,0.556-0.266
				c0.49,0,0.578,0.364,0.578,0.569c0,0.158-0.163,0.478-0.243,0.675c-0.04,0.111-0.01,0.336-0.106,0.51
				c-0.434,0.759-1.231,1.718-2.042,2.264c-0.37,0.245-1.344,0.282-1.505,0.282h-2.941c-0.161,0-0.471-0.28-0.664-0.367
				c-1.462-0.648-2.645-2.279-2.997-3.256c-0.039-0.06-0.172-0.101-0.172-0.258v-2.799c0-0.158-0.175-0.354-0.24-0.552
				c-0.056-0.182-0.082-0.547-0.082-0.705s0.021-0.357,0.085-0.459c0.499-0.783,0.354-1.494,0.86-2.277
				c0.064-0.103,0.068-0.305,0.1-0.495c0.024-0.134,0.229-0.287,0.285-0.389c0.121-0.213,0.441-0.815,0.674-1.005
				c0.104-0.087,0.291-0.096,0.387-0.167c0.997-0.727,1.771-1.207,2.775-1.483C251.278,35.727,251.978,35.75,252.139,35.75z
				 M338.628,42.833c-0.53,0-0.837,0.416-1.463,0.803c-0.273,0.166-0.674,0.229-0.899,0.355c-0.707,0.395-0.359,0.988-0.552,1.454
				c-0.056,0.143-0.239,0.186-0.279,0.249c-0.145,0.245-0.213,0.672-0.212,0.83v0.779c1.093,1.069,0.465,1.347,1.831,1.347
				c0.739,0,1.683-0.118,2.229-1.027c0.064-0.111,0.189-0.271,0.181-0.398c-0.112-1.455-0.072-1.959-0.128-3.161
				C339.311,43.519,339.479,42.833,338.628,42.833z M339.528,30.753c0.474,0,0.535-0.016,1.017,0.387
				c0.104,0.087,0.084,0.352,0.213,0.51c0.193,0.229,0.528,0.454,0.608,0.707c0.169,0.561,0.338,1.186,0.515,1.771
				c0.072,0.237,0.024,0.572,0.089,0.891l-0.128,11.956c0,0.553,0.667,1.103,1.077,1.34c0.282,0.158,0.757-0.07,1.03,0.104
				c0.434,0.284,0.336,0.896,0.336,1.244c0,0.158-0.018,0.95-0.154,1.369c-0.168,0.545-1.879,0.907-1.935,0.907
				c-2.242,0-1.655-2.466-2.989-2.466c-0.161,0-0.474,0.178-0.634,0.368c-0.201,0.245-0.536,1.093-0.994,1.251
				c-0.426,0.15-1.336,0.468-1.498,0.468h-1.077c-0.161,0-0.76,0.068-1.114-0.09c-0.61-0.277-0.682-0.97-0.939-1.445
				c-0.233-0.435-0.42-0.876-0.541-1.335c-0.064-0.237-0.041-0.577-0.041-0.83c0-0.126-0.104-0.221-0.104-0.379
				c0-0.245,0.338-0.956,0.362-1.082c0.112-0.49,0.141-1.094,0.43-1.528c0.434-0.664,1.193-1.112,1.724-1.634
				c0.097-0.095,0.344-0.108,0.457-0.171c0.337-0.189,0.713-0.493,1.034-0.595c0.25-0.079,0.596-0.08,0.901-0.167
				c0.153-0.04,0.304-0.312,0.441-0.399c0.241-0.158,0.613-0.167,0.838-0.293c0.346-0.182,0.577-0.607,0.866-0.791
				c0.019-0.055,0.082-0.17,0.082-0.233c0-0.885,0.064-1.075,0.064-1.233c0-0.158-0.128-0.316-0.128-0.475s0.128-0.189,0.128-0.348
				s-0.064-1.739-0.064-1.897c0-0.372-0.305-2.046-0.305-2.117c-0.048-0.751-0.484-1.62-1.159-2.046
				c-0.217-0.143-0.722-0.137-0.882-0.137c-1.181,0-1.211,0.658-2.079,1.883c-0.377,0.53-0.236,1.332-0.356,1.949
				c-0.048,0.245-0.747,0.721-0.972,0.721c-0.635,0-1.061-1.597-1.061-1.897c0-0.482,0.496-0.951,0.753-1.315
				c0.121-0.166,0.248-0.497,0.417-0.624c0.096-0.071,0.341-0.113,0.454-0.169c0.337-0.182,0.665-0.77,0.969-0.697
				c0.179-0.22,0.329-0.604,0.57-0.778c0.795-0.577,1.896-0.346,2.845-0.425C338.931,30.959,339.367,30.753,339.528,30.753z
				 M317.512,26.2c0.651,0,1.414,0.697,1.382,1.613l-0.128,20.269c0,0.158-0.027,1.005,0.206,1.472
				c0.121,0.237,0.759,0.868,0.759,1.152c0,0.553-0.876,0.664-1.093,0.664c-0.161,0-2.478-0.079-3.377-0.15
				c-0.394-0.032-0.608-0.474-0.608-0.704c0-0.118-0.018-0.307,0.279-0.394c0.571-0.182,1.713-0.95,1.713-1.63l-0.128-4.933
				c0-0.127,0.128-0.19,0.128-0.349l-0.193-3.921c0-0.158,0.193-1.043,0.193-1.202s-0.128-0.98-0.128-1.139
				c0-0.158,0.072-0.413,0.08-0.602c0.048-0.822-0.08-1.706-0.08-1.864s0.128-0.189,0.128-0.348c0-0.373,0.003-0.375,0.004-0.377
				l-0.069-3.354c-0.008-0.466,0.092-1.13-0.423-1.55c-0.177,0.062-0.509,0.253-0.669,0.253c-0.595,0-0.643-0.585-0.643-0.885
				c0-0.158,0.067-0.487,0.147-0.676C314.991,27.547,316.909,26.2,317.512,26.2z M287.718,25.757c0.377,0,0.646,0.356,1.005,0.064
				c0.086,0.21,0.281,0.568,0.281,0.726c0,0.047-0.177,0.883-0.29,1.01c-0.273,0.292-0.528,0.582-0.881,0.827
				c-0.289,0.198-0.756,0.198-1.093,0.419c-0.611,0.396-0.583,1.021-0.784,1.488c-0.169,0.387-0.255,1.005-0.23,1.378l-0.128,15.559
				c0,0.704,1.18,1.732,1.389,1.78c0.313,0.071,0.725-0.134,1.095-0.023c0.434,0.126,0.833,0.411,1.234,0.791
				c0.104,0.103,0.322,0.213,0.524,0.421c-0.47,0.866-1.603,0.429-2.27,0.706c-0.177,0.071-0.453,0.082-0.654,0.09
				c-1.028,0.047-1.126,0.063-1.287,0.063c-0.578,0-1.109-0.442-2.025-0.442c-1.31,0-0.884,0.759-2.346,0.759
				c-0.426,0-1.64,0.016-1.64-0.854c0-0.988,0.971-0.698,1.429-0.999c0.281-0.189,0.595-0.68,0.965-0.91
				c0.313-0.198,0.628-0.266,0.628-0.558c0-0.158,0.257-0.435,0.257-0.696c0.024-3.795-0.112-3.913-0.112-4.047
				c0-0.443,0.112-1.296,0.112-1.455c0-1.265-0.016-2.309-1.768-2.309l-8.554,0.126c-0.198-0.064-0.421-0.126-0.582-0.126h-2.298
				c-0.33,0-0.619,0.427-0.619,0.665c-0.008,0.632-0.064,0.758-0.064,0.917s0.128,1.107,0.128,1.265
				c0,0.158-0.128,1.075-0.128,1.233c0,0.158,0.128,0.506,0.128,0.664c0,0.158-0.088,0.981-0.128,3.005
				c-0.008,0.632,0.759,1.596,1.466,2.165c0.611,0.49,2.005,0.127,2.005,0.997c0,0.553-1.278,1.043-1.414,1.043
				c-0.161,0-0.675-0.189-0.836-0.189s-0.579,0.126-0.739,0.126s-1.768-0.442-1.928-0.442s-1.35,0.379-1.511,0.379
				s-0.482-0.111-0.675-0.111c-0.45,0-0.977,0.087-1.419,0.023c-0.386-0.055-0.828-0.094-1.173-0.387
				c-0.289-0.245-0.654-0.759-0.654-0.917c0-0.189,0.486-0.442,0.67-0.466c0.739-0.095,1.842,0.377,2.525-0.595
				c0.281-0.411,0.228-1.149,0.292-1.568c0.032-0.206,0.218-0.376,0.283-0.574c0.12-0.372,0.022-0.939,0.022-1.097
				s0.128-0.854,0.128-1.012c0-0.158-0.193-1.359-0.193-1.518l0.065-12.549c-0.063-0.185-0.091-0.453-0.211-0.619
				c-0.201-0.277-0.697-0.556-0.858-0.556h-1.205c-0.161,0-0.76-0.3-1.042-0.538c-0.161-0.134-0.387-0.424-0.459-0.622
				c-0.113-0.301-0.033-0.708-0.106-1.016c-0.048-0.206-0.426-0.545-0.426-0.703c0-0.245,0.659-0.474,0.739-0.474
				c0.161,0,2.25,0.569,2.411,0.569s2.089-0.443,2.25-0.443c0.024,0,1.623,0.569,1.928,0.569c0.161,0,1.446-0.19,1.607-0.19
				c0.563,0,2.121,0.174,2.121,1.138c0,1.091-1.634,0.867-2.012,1.025c-0.329,0.134-0.326,0.648-0.462,0.798
				c-0.731,0.798-1.229,1.393-1.189,2.189c0.064,0.505,0,0.572-0.002,0.624c0.057,0.053,0.131,0.051,0.131,0.209v1.628
				c0,0.158-0.074,0.22-0.13,0.273v3.143c0.001,0.158,0.161,0.325,0.265,0.428c0.088,0.087,0.224,0.197,0.353,0.22
				c0.193,0.032,0.484,0.023,0.645,0.023h10.655c0.161,0,0.259-0.126,0.375-0.145c0.184-0.284,0.619-0.569,0.868-0.917
				c0.201-0.284,0.332-0.591,0.34-0.931c0.112-3.858,0-4.175,0.016-4.486c-0.015-0.059,0.048-0.098,0.048-0.256
				c0-1.012-0.109-0.517-0.729-1.885c-0.185-0.411-1.578-1.246-2.036-1.246c-0.161,0-0.354,0.126-0.514,0.126
				s-0.657-0.302-0.938-0.578c-0.041-0.04-0.09-0.181-0.09-0.339c0-0.569,0.659-1.296,1.221-1.296c0.161,0,0.707,0.316,0.868,0.316
				s0.507-0.189,0.767-0.253l2.515-0.063c0.325,0.064,0.833,0.253,0.993,0.253s0.908-0.378,1.375-0.489
				C286.569,25.956,287.557,25.757,287.718,25.757z"/>
			<g>
				<path fill="#A5001D" d="M37.482,5.553c17.95,0,32.501,14.551,32.501,32.502S55.433,70.557,37.482,70.557
					S4.981,56.006,4.981,38.055S19.532,5.553,37.482,5.553z M37.482,6.496c-17.43,0-31.559,14.129-31.559,31.56
					s14.129,31.56,31.559,31.56s31.559-14.129,31.559-31.56S54.912,6.496,37.482,6.496z M37.482,11.59
					c14.616,0,26.464,11.848,26.464,26.465c0,14.616-11.848,26.465-26.464,26.465S11.018,52.671,11.018,38.055
					C11.018,23.438,22.867,11.59,37.482,11.59z M52.652,36.405l10.241-0.75c-1.196-12.823-11.876-22.891-24.956-23.119
					l-0.004,10.267C45.597,23.025,51.845,28.9,52.652,36.405z M48.854,36.683l2.858-0.209C50.94,29.458,45.1,23.967,37.932,23.746
					l-0.001,2.865C43.588,26.829,48.193,31.15,48.854,36.683z M37.927,37.483l9.985-0.731c-0.624-5.044-4.821-8.981-9.981-9.198
					L37.927,37.483z M48.019,49.091l6.84,7.658c5.011-4.66,8.146-11.311,8.146-18.693c0-0.49-0.014-0.977-0.042-1.46l-10.239,0.75
					c0.011,0.235,0.017,0.473,0.017,0.711C52.74,42.396,50.928,46.313,48.019,49.091z M45.482,46.25l1.909,2.137
					c2.716-2.605,4.407-6.271,4.407-10.332c0-0.215-0.005-0.429-0.014-0.642l-2.857,0.209l0.008,0.433
					C48.935,41.267,47.612,44.171,45.482,46.25z M38.46,38.388l6.394,7.159c1.937-1.906,3.138-4.559,3.138-7.492l-0.006-0.364
					L38.46,38.388z M33.076,47.6l3.663-9.158h-9.759C27.126,42.508,29.583,45.984,33.076,47.6z M31.661,51.138l1.064-2.662
					c-3.84-1.756-6.541-5.572-6.688-10.034l-2.865,0C23.322,44.11,26.767,48.957,31.661,51.138z M27.496,61.55l3.814-9.537
					c-5.241-2.321-8.93-7.506-9.081-13.571H11.963C12.118,48.828,18.476,57.711,27.496,61.55z M32.183,52.368l-3.813,9.535
					c2.83,1.082,5.902,1.675,9.113,1.675c6.374,0,12.202-2.336,16.675-6.2l-6.839-7.657c-2.656,2.242-6.088,3.593-9.835,3.593
					C35.619,53.313,33.834,52.979,32.183,52.368z M33.598,48.832l-1.064,2.66c1.542,0.568,3.209,0.879,4.949,0.879
					c3.507,0,6.718-1.261,9.208-3.354l-1.908-2.137c-1.982,1.641-4.525,2.627-7.299,2.627C36.119,49.508,34.811,49.27,33.598,48.832
					z M37.596,38.835l-3.648,9.121c1.104,0.395,2.294,0.609,3.534,0.609c2.533,0,4.856-0.896,6.671-2.388L37.596,38.835z
					 M27.55,26.472c-0.623-0.96-1.285-1.933-1.853-2.661c-1.255-1.618-3.595-4.255-4.573-5.348
					c-5.469,4.571-8.995,11.39-9.158,19.037h10.268C22.392,33.091,24.421,29.158,27.55,26.472z M29.588,29.758
					c-0.239-0.402-0.694-1.16-1.243-2.036l-0.282-0.448c-2.872,2.511-4.731,6.15-4.886,10.226h2.866
					C26.188,34.457,27.521,31.725,29.588,29.758z M35.854,37.5l-0.357-0.241c-0.88-0.606-1.976-1.452-2.79-2.398
					c-1.073-1.18-1.906-2.779-2.653-4.241c-1.782,1.78-2.928,4.197-3.067,6.88H35.854z M30.778,29.961
					c0.486,0.922,1.806,3.363,2.635,4.275c1.066,1.24,2.72,2.343,3.572,2.869l0.003-9.548C34.633,27.665,32.479,28.55,30.778,29.961
					z M28.817,26.659c0.514,0.816,1.009,1.643,1.494,2.466c1.843-1.482,4.155-2.406,6.678-2.513l0.001-2.865
					C33.923,23.852,31.101,24.919,28.817,26.659z M21.859,17.872c1.005,1.124,3.329,3.746,4.583,5.361
					c0.656,0.842,1.274,1.726,1.865,2.631c2.432-1.833,5.429-2.956,8.684-3.059l0.004-10.268
					C31.297,12.644,26.057,14.618,21.859,17.872z"/>
				<path fill="#A5001D" d="M13.274,55.058c-0.108-0.18-0.18-0.324-0.18-0.504s0.036-0.288,0.144-0.36
					c0.108-0.072,0.216-0.072,0.396-0.036c0.144,0.072,0.288,0.216,0.396,0.36c0.108,0.18,0.18,0.324,0.18,0.505
					c0.036,0.18-0.036,0.288-0.144,0.36c-0.072,0.072-0.216,0.072-0.36,0.036C13.526,55.347,13.382,55.238,13.274,55.058z"/>
				<path fill="#A5001D" d="M9.238,50.194L8.554,48.14l0.18-0.072l0.108,0.36c0.036,0.145,0.108,0.252,0.145,0.289
					c0.036,0.072,0.072,0.072,0.108,0.072s0.072-0.036,0.108-0.108l1.694-2.018l-2.378-0.504H8.374
					c-0.072,0.036-0.108,0.108-0.144,0.18c0,0.108,0,0.181,0.036,0.324l0.108,0.325l-0.144,0.072l-0.613-1.837l0.18-0.036
					l0.036,0.144c0.036,0.108,0.108,0.216,0.216,0.288c0.108,0.108,0.216,0.145,0.396,0.216l3.099,0.685l0.072,0.216l-2.198,2.667
					c-0.072,0.072-0.108,0.18-0.108,0.252c-0.036,0.108,0,0.216,0.036,0.324l0.072,0.18L9.238,50.194z M7.256,43.563l-0.108-1.225
					l2.27-3.351l-1.838,0.18c-0.18,0-0.324,0.072-0.396,0.216c-0.072,0.145-0.072,0.325-0.072,0.577H6.968l-0.18-1.802h0.18
					c0,0.181,0.036,0.324,0.072,0.396c0.036,0.072,0.108,0.18,0.18,0.216c0.108,0.072,0.216,0.108,0.289,0.072l2.594-0.216v0.324
					L7.761,42.41l1.946-0.18c0.18,0,0.289-0.072,0.36-0.216c0.072-0.181,0.108-0.396,0.108-0.685l0.145-0.036l0.18,1.981
					l-0.18,0.036c0-0.252-0.072-0.468-0.18-0.577c-0.108-0.144-0.252-0.216-0.396-0.216l-2.162,0.216l-0.036,0.072
					c-0.072,0.108-0.108,0.18-0.145,0.252v0.252l0.036,0.252H7.256z M6.932,36.573l0.18-2.378h0.18l-0.036,0.396
					c-0.036,0.216,0,0.325,0,0.36c0.036,0.072,0.072,0.072,0.18,0.108l2.45,0.18c0.108,0.036,0.145,0,0.18-0.036
					c0.036-0.036,0.072-0.144,0.072-0.288l0.036-0.469l0.181,0.036l-0.216,2.378l-0.144-0.036l0.036-0.433
					c0-0.18,0-0.252-0.036-0.324c0-0.036-0.072-0.072-0.18-0.072l-2.45-0.216c-0.072,0-0.145,0-0.18,0.036
					c-0.036,0.072-0.072,0.18-0.072,0.36l-0.036,0.396H6.932z M7.256,32.753l0.577-2.126l0.144,0.072l-0.108,0.36
					c-0.036,0.145-0.036,0.252-0.036,0.324c0,0.036,0.036,0.072,0.072,0.072c0.036,0.036,0.072,0,0.145,0l2.486-0.793L8.842,28.97
					c-0.036-0.036-0.072-0.072-0.108-0.072c-0.108-0.036-0.18,0-0.216,0.072c-0.072,0.036-0.108,0.144-0.144,0.288l-0.108,0.324
					l-0.144-0.036l0.469-1.838l0.18,0.036l-0.036,0.144c-0.036,0.108-0.036,0.216,0,0.36s0.108,0.252,0.252,0.396l2.198,2.234
					l-0.072,0.252l-3.279,1.045c-0.108,0.036-0.18,0.072-0.252,0.144c-0.036,0.072-0.108,0.18-0.144,0.324L7.4,32.789L7.256,32.753z
					"/>
				<path fill="#A5001D" d="M19.219,13.872l0.072-0.396l0.18-0.18l0.792,0.901l-0.18,0.144c-0.36-0.18-0.685-0.252-1.009-0.18
					c-0.324,0.036-0.648,0.18-0.937,0.396c-0.216,0.216-0.396,0.396-0.468,0.613c-0.072,0.216-0.072,0.396,0.036,0.504
					c0.072,0.108,0.144,0.144,0.252,0.144c0.108,0.036,0.252,0,0.396-0.036c0.144-0.072,0.396-0.216,0.757-0.432
					c0.468-0.289,0.865-0.469,1.081-0.577c0.216-0.072,0.433-0.108,0.613-0.072c0.144,0,0.288,0.072,0.396,0.216
					c0.18,0.216,0.216,0.504,0.072,0.865c-0.108,0.36-0.36,0.685-0.756,0.973c-0.433,0.36-0.829,0.577-1.297,0.648l-0.108,0.468
					l-0.18,0.181l-0.793-0.973l0.18-0.18c0.289,0.216,0.648,0.288,1.045,0.216c0.36-0.036,0.721-0.216,1.081-0.469
					c0.252-0.216,0.433-0.468,0.541-0.685c0.072-0.252,0.072-0.432-0.036-0.577c-0.072-0.072-0.18-0.144-0.288-0.144
					s-0.252,0.036-0.433,0.108c-0.144,0.072-0.468,0.216-0.937,0.504c-0.505,0.288-0.865,0.468-1.081,0.504
					c-0.324,0.072-0.577,0-0.721-0.216c-0.18-0.216-0.216-0.504-0.108-0.792c0.108-0.36,0.324-0.649,0.685-0.937
					c0.18-0.144,0.36-0.252,0.541-0.324C18.787,13.979,19.003,13.943,19.219,13.872z M14.463,20.286l0.433-0.469
					c0.252-0.324,0.396-0.576,0.468-0.829c0.072-0.252,0.036-0.433-0.18-0.612c-0.144-0.108-0.252-0.144-0.396-0.144
					c-0.108,0-0.216,0.036-0.324,0.108c-0.18,0.108-0.36,0.324-0.612,0.648c-0.18,0.216-0.289,0.36-0.289,0.433
					c-0.036,0.072-0.036,0.108,0.036,0.144L14.463,20.286z M14.463,18.052c0.18-0.181,0.324-0.289,0.504-0.325
					c0.289-0.144,0.541-0.144,0.721,0c0.108,0.108,0.18,0.216,0.18,0.396c0,0.144-0.036,0.324-0.108,0.541s-0.252,0.504-0.504,0.865
					c0.252-0.216,0.432-0.36,0.541-0.433c0.144-0.036,0.252-0.072,0.36-0.072c0.108-0.036,0.325,0.036,0.577,0.108
					c0.216,0.072,0.36,0.108,0.468,0.072c0.072,0,0.145-0.036,0.181-0.108c0.036-0.036,0.072-0.108,0.036-0.216
					c0-0.072-0.072-0.18-0.18-0.289l0.145-0.216c0.36,0.36,0.36,0.756,0,1.153c-0.108,0.144-0.216,0.252-0.325,0.324
					c-0.108,0.036-0.252,0.072-0.36,0.072c-0.108-0.036-0.289-0.108-0.577-0.288c-0.18-0.072-0.324-0.145-0.433-0.108
					c-0.108,0-0.252,0.036-0.396,0.144c-0.144,0.072-0.252,0.216-0.396,0.396l-0.289,0.324l1.009,0.793
					c0.18,0,0.252-0.036,0.324-0.144l0.288-0.396l0.144,0.108l-1.513,1.874l-0.144-0.108l0.324-0.396
					c0.072-0.072,0.108-0.145,0.144-0.216l-0.721-0.649l-1.333-1.117c-0.036-0.036-0.108-0.036-0.145,0
					c-0.072,0.036-0.144,0.072-0.216,0.144l-0.289,0.396l-0.144-0.108l1.693-2.054C14.175,18.34,14.319,18.16,14.463,18.052z
					 M9.311,25.943l1.945-3.604l1.009,0.433l-0.108,0.18c-0.36-0.072-0.648-0.036-0.865,0.072c-0.216,0.108-0.396,0.325-0.541,0.577
					l-0.468,0.901c-0.036,0.072-0.072,0.145-0.072,0.216l1.117,0.648l0.216-0.396c0.108-0.216,0.144-0.397,0.108-0.577
					c0-0.18-0.108-0.36-0.288-0.469l0.108-0.216l1.333,0.721l-0.145,0.216c-0.216-0.108-0.396-0.108-0.576-0.037
					c-0.144,0.072-0.289,0.216-0.433,0.469l-0.18,0.36l1.117,0.612c0.072,0,0.108,0,0.144-0.036
					c0.036-0.036,0.108-0.108,0.144-0.216l0.396-0.685c0.396-0.793,0.324-1.37-0.216-1.838l0.108-0.216l1.044,0.648l-2.018,3.784
					l-0.144-0.072l0.144-0.325c0.072-0.144,0.108-0.216,0.108-0.288s-0.036-0.108-0.072-0.144l-2.27-1.189
					c-0.036-0.036-0.108-0.036-0.144,0c-0.036,0.036-0.108,0.108-0.145,0.18l-0.216,0.396L9.311,25.943z"/>
				<path fill="#A5001D" d="M51.793,10.953l1.045,0.684l1.225,3.856l1.009-1.55c0.108-0.18,0.144-0.324,0.072-0.468
					c-0.072-0.144-0.18-0.288-0.396-0.396l0.072-0.145l1.55,0.973l-0.108,0.144c-0.144-0.108-0.288-0.144-0.36-0.18
					c-0.108-0.036-0.216-0.036-0.324,0c-0.072,0.036-0.18,0.108-0.216,0.18l-1.405,2.162l-0.288-0.18l-1.261-3.964l-1.045,1.622
					c-0.108,0.144-0.144,0.288-0.072,0.468c0.108,0.145,0.252,0.288,0.504,0.469l-0.108,0.144l-1.657-1.081l0.108-0.144
					c0.216,0.144,0.396,0.18,0.577,0.18s0.288-0.036,0.36-0.18l1.189-1.838v-0.072c-0.072-0.108-0.108-0.216-0.144-0.252
					s-0.108-0.108-0.216-0.144l-0.18-0.145L51.793,10.953z"/>
				<path fill="#A5001D" d="M57.522,14.917l1.513,1.549l-0.108,0.145l-0.288-0.289c-0.108-0.108-0.18-0.18-0.216-0.216
					c-0.072,0-0.108,0-0.144,0.036c-0.036,0-0.036,0.036-0.036,0.108l-0.036,0.072l-0.612,2.486l2.342-0.576
					c0.036,0,0.072-0.036,0.145-0.072c0.036-0.072,0.072-0.144,0.036-0.216c0-0.072-0.072-0.18-0.18-0.288l-0.216-0.252l0.108-0.108
					l1.333,1.369l-0.108,0.144l-0.108-0.144c-0.108-0.072-0.216-0.144-0.325-0.18c-0.144,0-0.288,0-0.468,0.036l-3.063,0.721
					l-0.181-0.18l0.829-3.352c0-0.108,0-0.18-0.036-0.288c-0.036-0.072-0.072-0.18-0.18-0.288l-0.108-0.108L57.522,14.917z"/>
				<path fill="#A5001D" d="M47.037,9.223c-0.252,0-0.469,0.036-0.649,0.108c-0.36,0.108-0.612,0.433-0.792,0.937
					c-0.18,0.541-0.18,0.973,0.036,1.297c0.18,0.288,0.504,0.504,0.901,0.648c0.18,0.072,0.324,0.108,0.504,0.108
					c0.072,0.036,0.18,0.036,0.288,0c0.252,0,0.468-0.108,0.648-0.252c0.216-0.18,0.36-0.433,0.469-0.757
					c0.144-0.36,0.18-0.685,0.144-0.937c-0.072-0.252-0.18-0.433-0.36-0.613s-0.433-0.324-0.685-0.433
					C47.361,9.295,47.181,9.259,47.037,9.223z M47.037,12.538c-0.216-0.036-0.396-0.108-0.577-0.144
					c-0.396-0.144-0.757-0.324-1.045-0.612c-0.288-0.252-0.504-0.541-0.648-0.829c-0.108-0.325-0.108-0.649,0-0.973
					c0.108-0.288,0.288-0.541,0.576-0.685c0.289-0.18,0.613-0.289,1.009-0.289c0.252,0,0.468,0,0.685,0.036
					c0.144,0.036,0.324,0.072,0.504,0.144c0.396,0.108,0.756,0.325,1.081,0.577c0.324,0.288,0.541,0.541,0.648,0.865
					c0.144,0.325,0.144,0.649,0.036,0.937s-0.289,0.541-0.613,0.721c-0.288,0.18-0.612,0.252-1.045,0.288
					C47.469,12.574,47.253,12.574,47.037,12.538z"/>
				<path fill="#A5001D" d="M65.557,25.799l1.333,3.892l-1.009,0.468l-0.072-0.216c0.288-0.216,0.468-0.433,0.541-0.685
					c0.036-0.216,0.036-0.504-0.072-0.792l-0.324-0.973c-0.036-0.072-0.072-0.144-0.108-0.144c-0.036-0.036-0.072-0.036-0.145-0.036
					l-1.081,0.396l0.144,0.396c0.072,0.252,0.18,0.396,0.324,0.504s0.324,0.144,0.541,0.072l0.108,0.216l-1.441,0.505l-0.072-0.252
					c0.216-0.072,0.36-0.216,0.432-0.396c0.036-0.18,0.036-0.396-0.072-0.612l-0.108-0.396l-1.225,0.432
					c-0.037,0-0.072,0.036-0.072,0.108c0,0.036,0,0.108,0.036,0.216l0.252,0.792c0.288,0.793,0.793,1.153,1.478,1.081l0.108,0.216
					l-1.189,0.324l-1.369-4.036l0.144-0.072l0.108,0.36c0.036,0.108,0.108,0.216,0.144,0.252c0.036,0.036,0.108,0.036,0.144,0.036
					l2.415-0.829c0.072-0.036,0.108-0.072,0.108-0.108c0-0.072,0-0.144-0.036-0.252l-0.144-0.396L65.557,25.799z"/>
				<path fill="#A5001D" d="M39.578,7.854l0.324-0.289l0.252,0.036v1.153h-0.252c-0.144-0.36-0.324-0.649-0.612-0.793
					c-0.289-0.18-0.613-0.288-0.973-0.288C38.028,7.638,37.74,7.71,37.56,7.818c-0.216,0.108-0.289,0.252-0.325,0.396
					c0,0.108,0.036,0.216,0.108,0.288c0.072,0.072,0.18,0.144,0.324,0.18c0.144,0.072,0.433,0.145,0.829,0.216
					c0.577,0.072,1.009,0.18,1.225,0.252c0.216,0.108,0.396,0.216,0.505,0.324c0.108,0.144,0.18,0.288,0.144,0.432
					c0,0.289-0.144,0.541-0.469,0.721c-0.324,0.18-0.756,0.252-1.225,0.252c-0.541-0.036-1.009-0.144-1.405-0.36l-0.396,0.288
					l-0.252-0.036l0.036-1.261l0.252,0.036c0.072,0.325,0.289,0.613,0.649,0.829c0.324,0.216,0.685,0.324,1.117,0.36
					c0.36,0,0.649-0.072,0.865-0.18c0.216-0.108,0.324-0.252,0.36-0.469c0-0.072-0.036-0.18-0.144-0.252
					c-0.072-0.072-0.18-0.144-0.36-0.216s-0.541-0.144-1.045-0.216c-0.577-0.108-0.973-0.216-1.153-0.36
					c-0.289-0.144-0.433-0.36-0.433-0.648c0-0.252,0.18-0.504,0.468-0.649c0.289-0.18,0.685-0.252,1.117-0.252
					c0.216,0,0.433,0.036,0.613,0.108C39.181,7.638,39.362,7.746,39.578,7.854z M32.551,9.98l0.901-0.144l-0.901-1.009l-0.216-0.252
					l-0.685,1.549L32.551,9.98z M32.551,7.89l2.342,2.63c0.072,0.108,0.252,0.144,0.468,0.108h0.144l0.036,0.144l-2.054,0.324
					v-0.144l0.144-0.036c0.216-0.036,0.36-0.072,0.468-0.108c0.036-0.036,0.072-0.072,0.072-0.108l-0.577-0.685l-1.045,0.144
					l-0.973,0.18l-0.18,0.396c-0.036,0.144-0.072,0.216-0.072,0.288c0.036,0.072,0.072,0.108,0.18,0.144
					c0.144,0.036,0.288,0.036,0.504,0l0.144-0.036l0.036,0.18l-1.837,0.289l-0.036-0.145c0.18-0.036,0.36-0.108,0.468-0.18
					c0.072-0.072,0.18-0.181,0.252-0.36l1.297-2.991L32.551,7.89z M21.129,12.286l2.054-1.261l0.072,0.144l-0.36,0.216
					c-0.144,0.108-0.216,0.18-0.252,0.216c-0.036,0.036-0.036,0.108,0.036,0.18l1.261,2.126c0.036,0.072,0.108,0.108,0.145,0.108
					c0.072,0,0.144-0.036,0.288-0.108l0.396-0.216l0.072,0.108l-2.054,1.261l-0.072-0.144l0.396-0.252
					c0.108-0.072,0.216-0.144,0.216-0.18c0.036-0.072,0.036-0.108-0.036-0.216l-1.261-2.09c-0.036-0.072-0.072-0.108-0.144-0.108
					s-0.18,0.036-0.324,0.144l-0.36,0.18L21.129,12.286z M24.768,10.232l3.928-1.513l0.541,1.117L29.02,9.944
					c-0.432-0.648-0.937-0.829-1.549-0.577c-0.144,0.036-0.216,0.108-0.252,0.145c-0.036,0.036-0.036,0.108-0.036,0.144l0.937,2.414
					c0.036,0.072,0.072,0.108,0.108,0.108c0.072,0,0.144-0.036,0.252-0.072l0.469-0.18l0.072,0.144l-2.27,0.865l-0.036-0.144
					l0.54-0.216c0.072-0.036,0.145-0.072,0.18-0.108c0-0.036,0.036-0.072,0-0.108l-0.937-2.45c0-0.036-0.036-0.072-0.108-0.072
					c-0.072-0.036-0.144,0-0.252,0.036c-0.325,0.144-0.541,0.324-0.685,0.576c-0.145,0.216-0.145,0.541-0.108,0.901l-0.252,0.072
					L24.768,10.232z"/>
				<path fill="#A5001D" d="M67.503,31.853l0.144,1.225l-2.126,3.423l1.838-0.216c0.18-0.036,0.288-0.108,0.36-0.252
					s0.108-0.324,0.072-0.576h0.144l0.252,1.801h-0.18c-0.036-0.18-0.072-0.324-0.108-0.396c-0.036-0.072-0.108-0.145-0.18-0.216
					c-0.108-0.072-0.216-0.072-0.288-0.072l-2.559,0.325l-0.036-0.325l2.234-3.531l-1.946,0.216c-0.18,0.036-0.289,0.108-0.36,0.252
					c-0.072,0.181-0.108,0.396-0.072,0.685l-0.144,0.036l-0.252-1.981h0.144c0.036,0.252,0.144,0.432,0.252,0.54
					c0.108,0.145,0.216,0.217,0.36,0.18l2.198-0.252l0.036-0.072c0.036-0.108,0.072-0.216,0.108-0.252c0-0.072,0-0.18-0.036-0.289
					v-0.216L67.503,31.853z"/>
				<path fill="#A5001D" d="M62.098,24.501l0.072-0.072c0.18-0.108,0.288-0.289,0.288-0.541c0-0.216-0.108-0.504-0.288-0.793
					l-0.072-0.144l-0.504-0.793l-0.144,0.108l-0.901,0.576c-0.072,0.036-0.072,0.072-0.072,0.145c0,0.036,0.036,0.144,0.108,0.252
					l0.325,0.541c0.216,0.289,0.396,0.504,0.541,0.649c0.036,0,0.072,0.036,0.108,0.036C61.738,24.573,61.918,24.573,62.098,24.501z
					 M62.675,21.511l-0.577,0.36l-0.36,0.216l0.36,0.577l0.144,0.252c0.144,0.216,0.288,0.36,0.433,0.469
					c0.036,0.036,0.072,0.036,0.108,0.072c0.18,0.072,0.396,0.072,0.612-0.072c0.108-0.072,0.216-0.181,0.216-0.289
					c0.036-0.144,0.036-0.288-0.036-0.432c-0.036-0.145-0.181-0.396-0.361-0.757c-0.18-0.216-0.288-0.36-0.324-0.433
					c-0.072-0.036-0.108-0.036-0.18,0L62.675,21.511z M62.675,23.817c0.144,0.288,0.18,0.541,0.18,0.756
					c0.036,0.252-0.036,0.433-0.18,0.541c-0.18,0.144-0.36,0.144-0.541,0.108c-0.216-0.072-0.396-0.216-0.613-0.433
					c-0.036,0-0.036-0.036-0.072-0.036c-0.216-0.216-0.433-0.504-0.613-0.829l-1.405-2.234l0.144-0.072l0.216,0.36
					c0.072,0.108,0.144,0.18,0.18,0.216c0.072,0.036,0.108,0.036,0.144,0.036l1.333-0.865l0.648-0.396l0.216-0.108
					c0.036-0.036,0.072-0.108,0.072-0.145c0-0.072-0.036-0.18-0.108-0.252l-0.18-0.289l-0.072-0.108l0.072-0.036l0.072-0.036
					l0.504,0.793l0.937,1.478c0.289,0.468,0.433,0.829,0.469,1.153c0,0.324-0.072,0.541-0.252,0.649
					c-0.144,0.108-0.324,0.108-0.541,0c-0.18-0.072-0.396-0.216-0.612-0.433c-0.036-0.036-0.072-0.108-0.145-0.144
					C62.603,23.601,62.639,23.708,62.675,23.817z"/>
				<path fill="#A5001D" d="M67.575,42.014l0.252,0.324l-0.036,0.288l-1.189-0.108l0.036-0.216c0.36-0.108,0.649-0.324,0.865-0.577
					c0.18-0.252,0.289-0.577,0.324-0.973c0.036-0.288,0-0.541-0.108-0.757s-0.252-0.324-0.396-0.324
					c-0.108,0-0.216,0.036-0.288,0.072c-0.072,0.072-0.144,0.18-0.216,0.325c-0.072,0.144-0.144,0.432-0.216,0.829
					c-0.144,0.577-0.252,0.973-0.36,1.189c-0.108,0.216-0.216,0.396-0.361,0.505c-0.108,0.108-0.252,0.144-0.432,0.108
					c-0.288,0-0.504-0.18-0.685-0.504c-0.144-0.361-0.216-0.757-0.18-1.261c0.036-0.541,0.216-0.973,0.468-1.37l-0.288-0.396
					l0.036-0.252l1.225,0.108v0.252c-0.36,0.072-0.649,0.252-0.865,0.577c-0.252,0.324-0.36,0.685-0.433,1.117
					c0,0.361,0.036,0.649,0.144,0.865c0.108,0.216,0.252,0.361,0.433,0.361c0.108,0.036,0.18,0,0.288-0.072
					c0.072-0.108,0.144-0.216,0.216-0.396c0.072-0.18,0.18-0.504,0.288-1.009c0.145-0.577,0.252-0.937,0.396-1.153
					c0.144-0.288,0.396-0.396,0.648-0.396c0.289,0.036,0.504,0.216,0.685,0.504c0.144,0.324,0.18,0.685,0.144,1.153
					c0,0.216-0.036,0.396-0.108,0.613C67.792,41.618,67.683,41.798,67.575,42.014z"/>
				<path fill="#A5001D" d="M67.359,44.681l-0.613,2.306l-0.144-0.072l0.108-0.396c0.036-0.145,0.036-0.289,0.036-0.325
					c-0.036-0.072-0.072-0.108-0.144-0.108l-2.378-0.649c-0.108-0.036-0.18-0.036-0.216,0c-0.036,0.072-0.072,0.144-0.108,0.289
					l-0.108,0.468l-0.18-0.072l0.613-2.306l0.18,0.036L64.26,44.32c-0.036,0.144-0.036,0.252-0.036,0.288
					c0.036,0.072,0.072,0.108,0.18,0.108l2.378,0.649c0.072,0.036,0.145,0.036,0.18,0c0.036-0.072,0.108-0.18,0.144-0.36
					l0.108-0.396L67.359,44.681z"/>
				<path fill="#A5001D" d="M64.801,51.239l0.144,0.396l-0.108,0.252l-1.117-0.468l0.108-0.216c0.396,0.036,0.721-0.072,1.009-0.252
					c0.252-0.216,0.469-0.468,0.613-0.792c0.108-0.288,0.18-0.541,0.144-0.757c-0.036-0.252-0.108-0.396-0.252-0.468
					c-0.108-0.036-0.216-0.036-0.324,0c-0.072,0.036-0.18,0.108-0.288,0.216c-0.108,0.144-0.288,0.36-0.504,0.721
					c-0.288,0.504-0.541,0.829-0.685,1.009c-0.18,0.18-0.36,0.288-0.505,0.36c-0.144,0.036-0.324,0.036-0.468-0.036
					c-0.252-0.108-0.432-0.36-0.468-0.721s0.036-0.757,0.252-1.225c0.216-0.469,0.505-0.865,0.865-1.153l-0.144-0.468l0.108-0.216
					l1.153,0.504l-0.108,0.216c-0.36-0.036-0.685,0.036-1.009,0.288c-0.324,0.216-0.576,0.541-0.756,0.901
					c-0.144,0.325-0.18,0.613-0.144,0.865c0,0.252,0.108,0.432,0.288,0.504c0.072,0.036,0.18,0.036,0.288,0
					c0.108-0.072,0.216-0.144,0.324-0.289c0.145-0.144,0.325-0.432,0.613-0.865c0.324-0.504,0.577-0.829,0.757-0.973
					c0.252-0.216,0.504-0.252,0.756-0.145c0.252,0.108,0.396,0.36,0.433,0.685c0.072,0.324,0,0.72-0.18,1.117
					c-0.108,0.216-0.216,0.396-0.324,0.541C65.161,50.95,64.981,51.094,64.801,51.239z"/>
				<path fill="#A5001D" d="M60.225,56.932c-0.144,0.144-0.289,0.252-0.469,0.324c-0.144,0.036-0.288,0.036-0.36-0.036
					c-0.108-0.108-0.145-0.216-0.145-0.396c0.036-0.144,0.108-0.324,0.252-0.468c0.144-0.18,0.288-0.288,0.432-0.324
					c0.18-0.036,0.289-0.036,0.396,0.036c0.108,0.072,0.144,0.216,0.108,0.396C60.405,56.607,60.333,56.788,60.225,56.932z"/>
				<path fill="#A5001D" d="M19.039,62.445L16.733,60.5l0.649-0.865l0.108,0.108c-0.144,0.324-0.216,0.577-0.18,0.757
					c0,0.216,0.108,0.396,0.288,0.541l0.577,0.468c0.036,0.036,0.108,0.072,0.144,0.072s0.072-0.036,0.108-0.072l0.72-0.865
					l-0.252-0.216c-0.144-0.108-0.288-0.144-0.433-0.144c-0.144,0-0.288,0.072-0.432,0.252l-0.144-0.108l0.937-1.117l0.144,0.108
					c-0.144,0.18-0.216,0.36-0.18,0.504c0,0.144,0.072,0.288,0.217,0.396l0.252,0.216l0.792-0.973
					c0.036-0.036,0.036-0.072,0.036-0.108c-0.036-0.036-0.072-0.108-0.108-0.145l-0.468-0.396c-0.469-0.396-0.973-0.36-1.478,0.072
					l-0.144-0.108l0.792-0.865l2.378,2.018l-0.108,0.108l-0.18-0.145c-0.072-0.072-0.144-0.108-0.18-0.108
					c-0.072,0-0.108,0-0.144,0.036l-1.622,1.91c-0.036,0.072-0.036,0.108-0.036,0.144c0.036,0.036,0.072,0.108,0.108,0.144
					l0.252,0.18L19.039,62.445z M48.622,66.301c0.144-0.036,0.288-0.072,0.468-0.144c0.18-0.072,0.289-0.144,0.324-0.18
					c0.036-0.072,0.036-0.108,0-0.18l-0.468-1.153l-0.324,0.144l-0.144,0.072c-0.325,0.108-0.505,0.252-0.577,0.433
					c-0.108,0.144-0.108,0.36,0,0.576c0.072,0.18,0.144,0.289,0.252,0.36c0.108,0.072,0.216,0.108,0.36,0.108
					C48.55,66.301,48.586,66.301,48.622,66.301z M50.604,65.652l-1.729,0.721c-0.072,0.036-0.144,0.072-0.252,0.108
					c-0.252,0.072-0.504,0.108-0.721,0.072c-0.252-0.072-0.433-0.216-0.541-0.468c-0.108-0.216-0.072-0.432,0.036-0.648
					c0.18-0.289,0.468-0.504,0.865-0.649l0.36-0.18l0.252-0.108l-0.252-0.577l-0.18-0.396c0-0.072-0.036-0.108-0.072-0.108
					c-0.072,0-0.144,0-0.216,0.036l-0.396,0.144l-0.072-0.144l0.937-0.396l0.757-0.288l0.072,0.144l-0.36,0.144
					c-0.072,0.036-0.108,0.036-0.144,0.072s-0.036,0.108,0,0.144l0.973,2.306c0.036,0.072,0.072,0.072,0.108,0.108
					c0.072,0,0.144-0.036,0.252-0.072l0.252-0.108L50.604,65.652z M52.297,63.274l0.648,0.432l-0.144-1.549l-0.504,0.325
					l-0.649,0.36L52.297,63.274z M53.198,64.283l-0.144,0.072l-0.757-0.504l-1.91-1.261c-0.108-0.072-0.216-0.072-0.36,0.036
					l-0.108,0.036l-0.072-0.108l1.297-0.792l0.072,0.144l-0.108,0.072c-0.108,0.072-0.216,0.144-0.252,0.18s-0.036,0.072,0,0.108
					l0.648,0.468l0.793-0.468l0.504-0.289l-0.036-0.432c-0.036-0.108-0.036-0.18-0.072-0.216c-0.036-0.072-0.108-0.108-0.216-0.108
					c-0.036,0-0.108,0-0.18,0.036c-0.036,0.036-0.072,0.036-0.144,0.072L52.045,61.4l-0.072-0.144l0.324-0.18l0.865-0.504
					l0.072,0.108c-0.145,0.072-0.216,0.18-0.252,0.252c-0.072,0.108-0.072,0.216-0.072,0.396L53.198,64.283z M30.317,66.661
					l0.648-0.757l-0.648-0.18l-0.648-0.144l0.288,1.514L30.317,66.661z M30.317,65.58l0.792,0.18l0.252-0.324
					c0.072-0.072,0.108-0.144,0.144-0.216c0-0.072,0-0.108-0.072-0.18c-0.072-0.072-0.18-0.144-0.325-0.18l-0.108-0.036l0.036-0.145
					l1.333,0.36l-0.036,0.144c-0.144-0.036-0.252-0.036-0.36,0c-0.108,0.036-0.216,0.108-0.324,0.216l-1.333,1.549l-0.577,0.721
					l-0.18-0.036l-0.577-3.171c0-0.108-0.108-0.18-0.252-0.252h-0.108l0.036-0.18l1.441,0.396l-0.036,0.145l-0.108-0.036
					c-0.144-0.036-0.252-0.036-0.324-0.036c-0.072,0-0.108,0.036-0.108,0.072l0.144,0.829L30.317,65.58z M22.534,64.175l1.261-2.018
					v-0.144c-0.036-0.036-0.072-0.108-0.18-0.144l-0.252-0.18c-0.252-0.144-0.504-0.216-0.756-0.252
					c-0.216,0.036-0.324,0.072-0.469,0.145c-0.18,0.108-0.36,0.324-0.54,0.612c-0.289,0.468-0.396,0.829-0.36,1.153
					c0.072,0.288,0.252,0.541,0.576,0.721l0.36,0.216c0.072,0.072,0.108,0.072,0.18,0.072c0.036,0,0.072-0.036,0.108-0.072
					L22.534,64.175z M23.255,65.147l-0.721-0.432l-0.937-0.577c-0.252-0.18-0.433-0.324-0.577-0.504
					c-0.144-0.216-0.216-0.504-0.252-0.793c0-0.324,0.072-0.612,0.252-0.9c0.144-0.252,0.324-0.433,0.541-0.577
					c0.144-0.108,0.36-0.18,0.541-0.18c0.144-0.036,0.288-0.036,0.432,0c0.072,0,0.18,0.036,0.252,0.072
					c0.18,0.036,0.396,0.144,0.648,0.289l1.478,0.937l-0.072,0.144l-0.324-0.18c-0.072-0.072-0.108-0.072-0.18-0.072l-1.441,2.198
					c0,0.036-0.036,0.108,0,0.144c0,0.036,0.072,0.072,0.108,0.108l0.324,0.216L23.255,65.147z M55.9,62.085v0.36l-0.144,0.108
					L55,61.652l0.144-0.108c0.289,0.216,0.577,0.324,0.829,0.324c0.288,0,0.504-0.108,0.721-0.252
					c0.18-0.144,0.288-0.324,0.324-0.504s0-0.324-0.072-0.432c-0.072-0.108-0.144-0.145-0.252-0.18c-0.072,0-0.18,0-0.289,0.036
					c-0.144,0-0.324,0.108-0.576,0.252c-0.396,0.216-0.649,0.324-0.829,0.36c-0.18,0.072-0.36,0.072-0.504,0.036
					s-0.252-0.144-0.36-0.252c-0.18-0.216-0.216-0.468-0.18-0.757c0.072-0.288,0.252-0.576,0.541-0.792
					c0.289-0.252,0.613-0.36,0.973-0.396l0.036-0.396l0.145-0.108l0.756,0.937l-0.108,0.108c-0.288-0.216-0.577-0.324-0.901-0.324
					s-0.577,0.108-0.829,0.324c-0.216,0.144-0.324,0.324-0.36,0.504c-0.036,0.216,0,0.396,0.108,0.504
					c0.036,0.108,0.144,0.145,0.216,0.18c0.108,0,0.216,0,0.36-0.036c0.108-0.036,0.36-0.145,0.685-0.325
					c0.396-0.216,0.685-0.324,0.865-0.324c0.252-0.036,0.468,0.072,0.613,0.252c0.18,0.216,0.252,0.468,0.18,0.757
					c-0.036,0.252-0.18,0.504-0.433,0.721c-0.144,0.072-0.288,0.144-0.396,0.216C56.261,62.013,56.081,62.049,55.9,62.085z
					 M46.424,67.274l-2.918,0.721l-0.324-1.009l0.18-0.036c0.144,0.325,0.324,0.505,0.468,0.613c0.18,0.072,0.396,0.108,0.613,0.036
					l0.72-0.18c0.072,0,0.108-0.036,0.145-0.072v-0.108l-0.252-1.117l-0.324,0.108c-0.18,0.036-0.288,0.108-0.396,0.252
					c-0.072,0.108-0.072,0.288-0.036,0.504l-0.18,0.036l-0.36-1.405l0.18-0.072c0.072,0.252,0.18,0.396,0.289,0.469
					c0.144,0.072,0.288,0.108,0.504,0.036l0.288-0.072l-0.324-1.189c0-0.072-0.036-0.072-0.072-0.108h-0.18l-0.577,0.145
					c-0.613,0.18-0.901,0.576-0.829,1.261l-0.18,0.036l-0.216-1.153l3.027-0.757l0.036,0.18l-0.252,0.036
					c-0.108,0.036-0.144,0.072-0.18,0.108s-0.036,0.072-0.036,0.144l0.612,2.415c0,0.072,0.036,0.108,0.072,0.108h0.18l0.288-0.072
					L46.424,67.274z M40.298,67.021c-0.216,0.036-0.396,0.108-0.541,0.18c-0.144,0.144-0.216,0.288-0.18,0.541
					c0,0.18,0.072,0.288,0.144,0.396c0.072,0.072,0.144,0.144,0.252,0.144c0.072,0.036,0.18,0.036,0.324,0.036
					c0.072,0,0.18-0.036,0.289-0.036c0.216,0,0.324-0.036,0.36-0.072c0.072-0.036,0.072-0.072,0.072-0.108l-0.108-1.153
					l-0.469,0.036C40.406,67.021,40.334,67.021,40.298,67.021z M40.298,65.292l1.585-0.145v0.145l-0.36,0.036
					c-0.072,0.036-0.144,0.036-0.18,0.072s-0.036,0.072-0.036,0.108l0.252,2.522c0,0.036,0.036,0.072,0.072,0.108
					c0.036,0.036,0.108,0.036,0.18,0.036l0.36-0.072l0.036,0.18l-1.91,0.18c-0.433,0.072-0.721,0.036-0.937-0.108
					c-0.216-0.108-0.361-0.288-0.361-0.54c-0.036-0.108,0-0.252,0.072-0.36c0.072-0.108,0.18-0.216,0.324-0.289
					c0.144-0.108,0.396-0.18,0.721-0.216c-0.252-0.036-0.433-0.072-0.504-0.108c-0.108-0.072-0.18-0.108-0.252-0.216
					c-0.072-0.072-0.145-0.216-0.252-0.468c-0.072-0.18-0.144-0.324-0.18-0.36c-0.072-0.072-0.108-0.072-0.18-0.072
					c-0.036,0-0.072,0.036-0.108,0.108c-0.072,0.072-0.072,0.18-0.072,0.36h-0.18c0-0.469,0.18-0.721,0.577-0.793
					c0.108,0,0.252,0,0.324,0.072c0.108,0.036,0.18,0.108,0.252,0.18c0.036,0.072,0.072,0.288,0.18,0.612
					c0.036,0.18,0.072,0.288,0.144,0.396c0.072,0.072,0.18,0.108,0.289,0.144c0.036,0,0.072,0.036,0.144,0.036h0.289l0.288-0.036
					l-0.108-1.225c0-0.072-0.036-0.108-0.072-0.108c-0.036-0.036-0.108-0.036-0.18-0.036l-0.216,0.036h-0.144l-0.036-0.144
					L40.298,65.292z M37.38,68.643l-3.027-0.18v-1.045h0.18c0.036,0.36,0.144,0.577,0.288,0.721s0.324,0.216,0.541,0.216
					l0.757,0.072c0.072,0,0.108-0.036,0.144-0.036c0.036-0.036,0.036-0.072,0.036-0.144l0.072-1.117h-0.325
					c-0.18-0.036-0.324,0.036-0.432,0.108c-0.108,0.108-0.18,0.252-0.216,0.468h-0.18l0.108-1.441h0.145
					c0,0.252,0.072,0.396,0.18,0.504c0.108,0.145,0.252,0.18,0.432,0.18l0.289,0.036l0.072-1.261c0-0.036,0-0.072-0.036-0.108
					c-0.036-0.036-0.108-0.036-0.18-0.036l-0.612-0.036c-0.613-0.036-1.009,0.289-1.153,0.973l-0.18-0.036l0.145-1.153l3.099,0.144
					v0.18l-0.252-0.036c-0.108,0-0.18,0.036-0.216,0.036c-0.036,0.036-0.072,0.072-0.072,0.144l-0.144,2.486
					c0,0.072,0.036,0.108,0.072,0.144c0.036,0,0.072,0.036,0.144,0.036h0.325V68.643z M27.759,67.058l-1.477-0.577l0.072-0.144
					l0.252,0.108c0.108,0.036,0.18,0.036,0.216,0.036s0.072-0.036,0.108-0.072v-0.108l-0.144-2.414l-1.585,1.549
					c0,0.036-0.036,0.072-0.072,0.144c-0.036,0.072-0.036,0.144,0,0.18c0.036,0.072,0.108,0.108,0.216,0.144l0.216,0.108
					l-0.036,0.144l-1.297-0.504l0.036-0.144l0.108,0.036c0.072,0.036,0.18,0.036,0.288,0c0.108-0.036,0.216-0.108,0.324-0.216
					l2.09-2.018l0.18,0.072l0.18,3.099c0,0.108,0.036,0.18,0.072,0.252c0.036,0.072,0.108,0.108,0.18,0.144l0.144,0.036
					L27.759,67.058z"/>
			</g>
		</g>
	</g>
</g>
<g id="Primer_Plano">
</g>
<g id="Layer_2">
</g>
</svg>
